<!--<svg xmlns="http://www.w3.org/2000/svg" width="120" height="120" fill="currentColor" class="bi bi-person-workspace" viewBox="0 0 16 16">-->
<!--    <path d="M4 16s-1 0-1-1 1-4 5-4 5 3 5 4-1 1-1 1zm4-5.95a2.5 2.5 0 1 0 0-5 2.5 2.5 0 0 0 0 5"/>-->
<!--    <path d="M2 1a2 2 0 0 0-2 2v9.5A1.5 1.5 0 0 0 1.5 14h.653a5.4 5.4 0 0 1 1.066-2H1V3a1 1 0 0 1 1-1h12a1 1 0 0 1 1 1v9h-2.219c.554.654.89 1.373 1.066 2h.653a1.5 1.5 0 0 0 1.5-1.5V3a2 2 0 0 0-2-2z"/>-->
<!--</svg>-->
<svg xmlns="http://www.w3.org/2000/svg" fill="grey" class="bi bi-file-person" viewBox="0 0 16 16">
    <path d="M12 1a1 1 0 0 1 1 1v10.755S12 11 8 11s-5 1.755-5 1.755V2a1 1 0 0 1 1-1zM4 0a2 2 0 0 0-2 2v12a2 2 0 0 0 2 2h8a2 2 0 0 0 2-2V2a2 2 0 0 0-2-2z"/>
    <path d="M8 10a3 3 0 1 0 0-6 3 3 0 0 0 0 6"/>
</svg>
